<?xml version="1.0" encoding="UTF-8"?>
<!DOCTYPE svg PUBLIC "-//W3C//DTD SVG 1.1//EN" "http://www.w3.org/Graphics/SVG/1.1/DTD/svg11.dtd">
<!-- Creator: CorelDRAW X7 -->
<svg xmlns="http://www.w3.org/2000/svg" xml:space="preserve" width="210mm" height="297mm" version="1.1" style="shape-rendering:geometricPrecision; text-rendering:geometricPrecision; image-rendering:optimizeQuality; fill-rule:evenodd; clip-rule:evenodd"
viewBox="0 0 21000 29700"
 xmlns:xlink="http://www.w3.org/1999/xlink">
 <defs>
  <style type="text/css">
   <![CDATA[
    .str0 {stroke:#1C1B17;stroke-width:1000}
    .str1 {stroke:#1C1B17;stroke-width:1000;stroke-linecap:round;stroke-linejoin:round}
    .fil0 {fill:none}
   ]]>
  </style>
 </defs>
 <g id="Layer_x0020_1">
  <metadata id="CorelCorpID_0Corel-Layer"/>
  <g id="_448769984">
   <g>
    <circle class="fil0 str0" cx="-3178" cy="15032" r="2891"/>
    <path class="fil0 str1" d="M-3790 15317c118,-637 493,-939 1029,-1030"/>
   </g>
   <g>
    <circle class="fil0 str0" cx="6014" cy="4710" r="2891"/>
    <path class="fil0 str1" d="M5402 4994c119,-637 493,-938 1029,-1029"/>
   </g>
   <g>
    <circle class="fil0 str0" cx="6014" cy="14886" r="2891"/>
    <path class="fil0 str1" d="M5402 15171c119,-637 493,-938 1029,-1029"/>
   </g>
   <g>
    <circle class="fil0 str0" cx="6014" cy="24990" r="2891"/>
    <path class="fil0 str1" d="M5402 25275c119,-637 493,-939 1029,-1030"/>
   </g>
   <g>
    <circle class="fil0 str0" cx="24178" cy="15032" r="2891"/>
    <path class="fil0 str1" d="M23567 15317c118,-637 493,-939 1029,-1030"/>
   </g>
   <g>
    <circle class="fil0 str0" cx="15643" cy="10509" r="2891"/>
    <path class="fil0 str1" d="M15032 10794c118,-637 493,-939 1029,-1030"/>
   </g>
   <g>
    <circle class="fil0 str0" cx="15643" cy="19628" r="2891"/>
    <path class="fil0 str1" d="M15032 19913c118,-637 493,-939 1029,-1030"/>
   </g>
   <line class="fil0 str0" x1="-1306" y1="12830" x2="4079" y2= "6857" />
   <line class="fil0 str0" x1="-288" y1="15032" x2="3124" y2= "15032" />
   <line class="fil0 str0" x1="8627" y1="13649" x2="13004" y2= "11689" />
   <line class="fil0 str0" x1="7364" y1="22434" x2="13996" y2= "12885" />
   <line class="fil0 str0" x1="8722" y1="15899" x2="13097" y2= "18258" />
   <line class="fil0 str0" x1="7559" y1="7153" x2="14073" y2= "17201" />
   <line class="fil0 str0" x1="8583" y1="23665" x2="13041" y2= "20888" />
   <line class="fil0 str0" x1="8521" y1="6149" x2="13176" y2= "9001" />
   <line class="fil0 str0" x1="18241" y1="11778" x2="21643" y2= "13644" />
   <line class="fil0 str0" x1="18220" y1="18316" x2="21422" y2= "15906" />
   <line class="fil0 str0" x1="-1394" y1="17307" x2="3849" y2= "23074" />
  </g>
  <rect class="fil0" x="-8426" y="129" width="37853" height="29441"/>
 </g>
</svg>
